<?xml version="1.0" encoding="UTF-8" standalone="no"?>
<svg
   xmlns:dc="http://purl.org/dc/elements/1.1/"
   xmlns:cc="http://creativecommons.org/ns#"
   xmlns:rdf="http://www.w3.org/1999/02/22-rdf-syntax-ns#"
   xmlns:svg="http://www.w3.org/2000/svg"
   xmlns="http://www.w3.org/2000/svg"
   xmlns:sodipodi="http://sodipodi.sourceforge.net/DTD/sodipodi-0.dtd"
   xmlns:inkscape="http://www.inkscape.org/namespaces/inkscape"
   viewBox="0 0 315.53 104.73"
   version="1.1"
   id="svg62"
   sodipodi:docname="xfc.svg"
   inkscape:version="0.92.4 (5da689c313, 2019-01-14)">
  <metadata
     id="metadata66">
    <rdf:RDF>
      <cc:Work
         rdf:about="">
        <dc:format>image/svg+xml</dc:format>
        <dc:type
           rdf:resource="http://purl.org/dc/dcmitype/StillImage" />
        <dc:title>xfc</dc:title>
      </cc:Work>
    </rdf:RDF>
  </metadata>
  <sodipodi:namedview
     pagecolor="#ffffff"
     bordercolor="#666666"
     borderopacity="1"
     objecttolerance="10"
     gridtolerance="10"
     guidetolerance="10"
     inkscape:pageopacity="0"
     inkscape:pageshadow="2"
     inkscape:window-width="1366"
     inkscape:window-height="705"
     id="namedview64"
     showgrid="false"
     inkscape:snap-text-baseline="false"
     inkscape:zoom="2.5726827"
     inkscape:cx="156.88249"
     inkscape:cy="46.045598"
     inkscape:window-x="1912"
     inkscape:window-y="131"
     inkscape:window-maximized="1"
     inkscape:current-layer="svg62" />
  <defs
     id="defs44">
    <style
       id="style42">.cls-1,.cls-2{fill-rule:evenodd;}.cls-2{fill:#fcca00;}.cls-3{fill:#fff;}</style>
  </defs>
  <title
     id="title46">xfc</title>
  <path
     class="cls-1"
     d="M 55.83,15.24 H 8.51 A 8.14,8.14 0 0 0 0.4,23.35 v 64.81 a 8.14,8.14 0 0 0 8.11,8.11 h 106.64 a 8.14,8.14 0 0 0 8.11,-8.11 V 6.94 A 7,7 0 0 0 116.32,0 H 66.64 A 7,7 0 0 0 59.7,6.94 v 4.26 c 0.16,2.97 -1.95,4.04 -3.87,4.04 z"
     id="path48"
     inkscape:connector-curvature="0"
     style="fill-rule:evenodd" />
  <path
     class="cls-2"
     d="m 68,22.72 h 47.69 a 8.2,8.2 0 0 1 8.18,8.18 v 65.32 a 8.2,8.2 0 0 1 -8.18,8.18 H 8.18 A 8.2,8.2 0 0 1 0,96.22 V 14.36 a 7,7 0 0 1 7,-7 h 50.07 a 7,7 0 0 1 7,7 v 4.3 C 63.9,21.65 66,22.72 68,22.72 Z"
     id="path50"
     inkscape:connector-curvature="0"
     style="fill:#fcca00;fill-rule:evenodd" />
  <circle
     class="cls-3"
     cx="94.669998"
     cy="77.400002"
     r="21.17"
     id="circle52"
     style="fill:#ffffff" />
  <path
     class="cls-1"
     d="m 105.66,73.93 c -6.6,-2.87 -13.4,-5.28 -20.09,-7.91 a 1,1 0 0 0 -1.25,1.29 L 92,87.86 a 1,1 0 0 0 1.89,0.13 l 2.75,-4.63 a 1,1 0 0 1 1.64,0 l 5,5.09 c 0.5,0.55 1.15,0.88 1.82,0.16 l 1.78,-1.85 a 1,1 0 0 0 0,-1.5 c -1.77,-1.83 -3.56,-3.49 -5.32,-5.34 a 1,1 0 0 1 0.24,-1.57 l 4.07,-2.53 a 1,1 0 0 0 -0.21,-1.89 z"
     id="path54"
     inkscape:connector-curvature="0"
     style="fill-rule:evenodd" />
  <path
     class="cls-2"
     d="m 143.31,88.58 v 5.13 h 9 v 3.61 h -9 v 7.07 h -4.49 V 85 h 14.68 v 3.61 z m 12.65,0.89 h 4.33 v 14.92 H 156 V 89.47 Z m 2.16,-2.08 a 2.75,2.75 0 0 1 -1.94,-0.69 2.35,2.35 0 0 1 0,-3.44 2.75,2.75 0 0 1 1.94,-0.69 2.81,2.81 0 0 1 1.94,0.67 2.14,2.14 0 0 1 0.75,1.66 2.36,2.36 0 0 1 -0.75,1.79 2.71,2.71 0 0 1 -1.94,0.71 z m 6.19,-3.58 h 4.33 v 20.58 h -4.33 z m 23,13.18 q 0,0.08 -0.08,1.16 h -11.32 a 3.52,3.52 0 0 0 1.44,2.19 4.78,4.78 0 0 0 2.83,0.8 5.73,5.73 0 0 0 2.07,-0.35 5,5 0 0 0 1.68,-1.1 l 2.3,2.5 a 7.74,7.74 0 0 1 -6.16,2.41 9.74,9.74 0 0 1 -4.47,-1 7.22,7.22 0 0 1 -3,-2.73 7.53,7.53 0 0 1 -1.05,-4 7.63,7.63 0 0 1 1,-4 7.29,7.29 0 0 1 2.86,-2.75 8.85,8.85 0 0 1 8,0 6.88,6.88 0 0 1 2.79,2.7 8.06,8.06 0 0 1 1,4.09 z m -7.74,-4.47 a 3.73,3.73 0 0 0 -2.47,0.83 3.54,3.54 0 0 0 -1.22,2.27 h 7.35 A 3.58,3.58 0 0 0 182,93.37 3.65,3.65 0 0 0 179.56,92.52 Z m 28.07,12.21 a 11.16,11.16 0 0 1 -5.37,-1.29 9.63,9.63 0 0 1 -3.77,-3.58 10.43,10.43 0 0 1 0,-10.35 9.63,9.63 0 0 1 3.77,-3.58 12,12 0 0 1 10,-0.4 9.14,9.14 0 0 1 3.43,2.55 l -2.89,2.66 a 6.2,6.2 0 0 0 -4.88,-2.27 6.48,6.48 0 0 0 -3.22,0.79 5.62,5.62 0 0 0 -2.21,2.21 6.94,6.94 0 0 0 0,6.44 5.62,5.62 0 0 0 2.21,2.21 6.48,6.48 0 0 0 3.22,0.79 6.17,6.17 0 0 0 4.88,-2.3 l 2.89,2.66 a 9,9 0 0 1 -3.44,2.58 11.42,11.42 0 0 1 -4.58,0.89 z m 19.81,-15.48 a 6.14,6.14 0 0 1 4.48,1.66 6.6,6.6 0 0 1 1.71,4.94 v 8.54 h -4.33 v -7.88 a 3.89,3.89 0 0 0 -0.78,-2.65 2.85,2.85 0 0 0 -2.25,-0.87 3.44,3.44 0 0 0 -2.61,1 4.19,4.19 0 0 0 -1,3 v 7.38 h -4.33 V 83.81 h 4.33 V 91 a 5.76,5.76 0 0 1 2.08,-1.32 7.53,7.53 0 0 1 2.66,-0.46 z m 17.37,15.37 a 9,9 0 0 1 -4.23,-1 7.32,7.32 0 0 1 -2.93,-2.73 8,8 0 0 1 0,-7.93 7.32,7.32 0 0 1 2.93,-2.73 9.55,9.55 0 0 1 8.45,0 7.34,7.34 0 0 1 2.88,2.77 8,8 0 0 1 0,7.93 7.35,7.35 0 0 1 -2.91,2.73 8.87,8.87 0 0 1 -4.22,1 z m 0,-3.55 a 3.6,3.6 0 0 0 2.73,-1.12 4.78,4.78 0 0 0 0,-6 3.61,3.61 0 0 0 -2.73,-1.12 3.65,3.65 0 0 0 -2.82,1.09 4.73,4.73 0 0 0 0,6 3.65,3.65 0 0 0 2.75,1.12 z m 18.18,3.54 a 9,9 0 0 1 -4.23,-1 7.32,7.32 0 0 1 -2.93,-2.73 8,8 0 0 1 0,-7.93 7.32,7.32 0 0 1 2.93,-2.73 9.55,9.55 0 0 1 8.45,0 7.34,7.34 0 0 1 2.87,2.78 8,8 0 0 1 0,7.93 7.35,7.35 0 0 1 -2.91,2.73 8.87,8.87 0 0 1 -4.22,1 z m 0,-3.55 a 3.6,3.6 0 0 0 2.73,-1.12 4.78,4.78 0 0 0 0,-6 3.61,3.61 0 0 0 -2.73,-1.14 3.65,3.65 0 0 0 -2.75,1.12 4.73,4.73 0 0 0 0,6 3.65,3.65 0 0 0 2.75,1.12 z m 16,3.55 a 14.49,14.49 0 0 1 -3.63,-0.46 9.49,9.49 0 0 1 -2.83,-1.15 L 274,99.9 a 9.09,9.09 0 0 0 2.41,1 10.12,10.12 0 0 0 2.77,0.4 q 2.75,0 2.75,-1.36 a 1,1 0 0 0 -0.75,-0.92 11.09,11.09 0 0 0 -2.3,-0.47 22.23,22.23 0 0 1 -3,-0.64 4.69,4.69 0 0 1 -2.07,-1.28 3.63,3.63 0 0 1 -0.87,-2.61 4.08,4.08 0 0 1 0.82,-2.51 5.26,5.26 0 0 1 2.39,-1.71 10.19,10.19 0 0 1 3.7,-0.61 14.53,14.53 0 0 1 3.15,0.35 8.81,8.81 0 0 1 2.59,1 l -1.44,3.08 a 8.61,8.61 0 0 0 -4.3,-1.11 4.38,4.38 0 0 0 -2.08,0.39 1.14,1.14 0 0 0 -0.69,1 1,1 0 0 0 0.75,1 13.26,13.26 0 0 0 2.39,0.53 25.51,25.51 0 0 1 3,0.65 4.5,4.5 0 0 1 2,1.26 3.58,3.58 0 0 1 0.86,2.55 3.94,3.94 0 0 1 -0.83,2.47 5.32,5.32 0 0 1 -2.43,1.68 10.81,10.81 0 0 1 -3.79,0.6 z M 303.38,97 q 0,0.08 -0.08,1.16 H 292 a 3.52,3.52 0 0 0 1.44,2.19 4.78,4.78 0 0 0 2.83,0.8 5.73,5.73 0 0 0 2.07,-0.35 5,5 0 0 0 1.66,-1.1 l 2.3,2.5 a 7.74,7.74 0 0 1 -6.16,2.41 9.74,9.74 0 0 1 -4.47,-1 7.22,7.22 0 0 1 -3,-2.73 7.53,7.53 0 0 1 -1.05,-4 7.63,7.63 0 0 1 1,-4 7.29,7.29 0 0 1 2.86,-2.75 8.85,8.85 0 0 1 8,0 6.88,6.88 0 0 1 2.79,2.7 8.06,8.06 0 0 1 1,4.09 z m -7.74,-4.47 a 3.73,3.73 0 0 0 -2.47,0.83 3.54,3.54 0 0 0 -1.22,2.27 h 7.35 a 3.58,3.58 0 0 0 -1.22,-2.26 3.65,3.65 0 0 0 -2.44,-0.85 z m 14.76,-1.08 a 4.81,4.81 0 0 1 2.09,-1.64 7.77,7.77 0 0 1 3,-0.55 v 4 l -1,-0.06 a 4,4 0 0 0 -2.91,1 4.2,4.2 0 0 0 -1.05,3.12 v 7 H 306.2 V 89.47 h 4.13 z"
     id="path58"
     inkscape:connector-curvature="0"
     style="fill:#fcca00;fill-rule:evenodd" />
  <text
     xml:space="preserve"
     style="font-style:normal;font-variant:normal;font-weight:bold;font-stretch:normal;font-size:29.33333397px;line-height:1.25;font-family:'Adobe Gothic Std';-inkscape-font-specification:'Adobe Gothic Std, Bold';font-variant-ligatures:normal;font-variant-caps:normal;font-variant-numeric:normal;font-feature-settings:normal;text-align:start;letter-spacing:0px;word-spacing:0px;writing-mode:lr-tb;text-anchor:start;fill:#000000;fill-opacity:1;stroke:none"
     x="138.5825"
     y="75.966255"
     id="text83"><tspan
       sodipodi:role="line"
       id="tspan81"
       x="138.5825"
       y="75.966255">Xamarin</tspan></text>
</svg>
